HIERARCHY
ROOT ui
{
	 OFFSET 0 0 0
	 CHANNELS 3 XPosition YPosition Z Position
	 EndSite
	 {
	 OFFSET 0 -1 0
	 }
}
ROOT li
{
	 OFFSET 0 0 0
	 CHANNELS 3 XPosition YPosition Z Position
	 EndSite
	 {
	 OFFSET 0 -1 0
	 }
}
ROOT ul
{
	 OFFSET 0 0 0
	 CHANNELS 3 XPosition YPosition Z Position
	 EndSite
	 {
	 OFFSET 0 -1 0
	 }
}
ROOT ll
{
	 OFFSET 0 0 0
	 CHANNELS 3 XPosition YPosition Z Position
	 EndSite
	 {
	 OFFSET 0 -1 0
	 }
}
ROOT tt
{
	 OFFSET 0 0 0
	 CHANNELS 3 XPosition YPosition Z Position
	 EndSite
	 {
	 OFFSET 0 -1 0
	 }
}
ROOT tb
{
	 OFFSET 0 0 0
	 CHANNELS 3 XPosition YPosition Z Position
	 EndSite
	 {
	 OFFSET 0 -1 0
	 }
}
ROOT td
{
	 OFFSET 0 0 0
	 CHANNELS 3 XPosition YPosition Z Position
	 EndSite
	 {
	 OFFSET 0 -1 0
	 }
}
ROOT v
{
	 OFFSET 0 0 0
	 CHANNELS 3 XPosition YPosition Z Position
	 EndSite
	 {
	 OFFSET 0 -1 0
	 }
}
ROOT bn
{
	 OFFSET 0 0 0
	 CHANNELS 3 XPosition YPosition Z Position
	 EndSite
	 {
	 OFFSET 0 -1 0
	 }
}
MOTION
Frames: 19
Frame Time: 0.002
1.8062199652194976E-4	4.2792901396751406E-4	0		0.45652346801757815	-2.28283837890625	0		-1.0851019287109376	0.04561542129516601	0		-0.7346961059570313	-2.280398193359375	0		1.6848114013671875	-0.3626316833496094	0		3.202675537109375	0.08305460357666015	0		4.67219873046875	0.13868429565429688	0		5.5784521484375	0.1747675018310547	0		-0.09529513549804687	5.9728291015625	0		
3.5339999943971634E-5	2.576049864292145E-4	0		0.4765306396484375	-2.275210205078125	0		-1.0893284912109376	0.04205923080444336	0		-0.7338530883789063	-2.28088671875	0		1.6848232421875	-0.36207208251953127	0		3.213198974609375	0.07004469299316406	0		4.66716162109375	0.14864102172851562	0		5.57544091796875	0.16662738037109376	0		-0.2635986328125	5.9470751953125	0		
-9.473100304603577E-5	9.165900200605393E-5	0		0.44936871337890627	-2.274600341796875	0		-1.05250439453125	0.03967428970336914	0		-0.6991280517578125	-2.287058837890625	0		1.68484619140625	-0.3615254821777344	0		3.211285400390625	0.08327610778808593	0		4.6477265625	0.1388408660888672	0		5.57126611328125	0.187865234375	0		-0.09970455932617188	5.971388671875	0		
-2.0720399916172028E-4	-6.880199909210205E-5	0		0.4740975036621094	-2.279058837890625	0		-1.095503662109375	0.04594793701171875	0		-0.7363012084960937	-2.286740234375	0		1.678721435546875	-0.36887744140625	0		3.187183837890625	0.08690550231933594	0		4.66339306640625	0.13225364685058594	0		5.575365234375	0.17394622802734375	0		-0.25184202575683595	5.94318701171875	0		
-2.996749877929688E-4	-2.2269399464130402E-4	0		0.45097113037109376	-2.274556884765625	0		-1.089713623046875	0.04025257110595703	0		-0.7334689331054688	-2.285218994140625	0		1.6849281005859376	-0.3605008544921875	0		3.19191845703125	0.08088892364501953	0		4.660505859375	0.1469625701904297	0		5.57534375	0.17735772705078126	0		-0.25227610778808596	5.94089599609375	0		
0.0026877219676971435	0.0025724570751190184	0		0.4475552673339844	-2.283459716796875	0		-1.0798388671875	0.03751687240600586	0		-0.7157300415039063	-2.28696044921875	0		1.6490924072265625	-0.35433853149414063	0		3.22063916015625	0.07234494018554688	0		4.66934130859375	0.1463384552001953	0		5.5741015625	0.20484222412109376	0		-0.2373563232421875	5.94832763671875	0		
0.0026412980556488035	0.0024357409477233885	0		0.4825036315917969	-2.27209423828125	0		-1.0488076171875	0.04142412948608398	0		-0.6939871215820312	-2.2867392578125	0		1.6850650634765625	-0.359601806640625	0		3.205970703125	0.09457748413085937	0		4.6712646484375	0.14874136352539064	0		5.57828759765625	0.1955084686279297	0		-0.24137464904785155	5.95014697265625	0		
-4.3411898612976074E-4	-6.354280114173889E-4	0		0.45314056396484376	-2.27451123046875	0		-1.0898885498046875	0.038736141204833985	0		-0.7312880859375	-2.286373291015625	0		1.6851578369140625	-0.35920608520507813	0		3.1917001953125	0.08371015930175782	0		4.65812646484375	0.14630982971191406	0		5.57536083984375	0.1862639923095703	0		-0.2584293212890625	5.94022509765625	0		
-4.251199960708618E-4	-7.549440264701843E-4	0		0.47771728515625	-2.278943115234375	0		-1.052915283203125	0.03662643051147461	0		-0.732666748046875	-2.2886630859375	0		1.6852685546875	-0.35884716796875	0		3.19168505859375	0.0844967041015625	0		4.66294580078125	0.13942193603515626	0		5.57125048828125	0.20624082946777345	0		-0.12770555877685547	5.96059814453125	0		
-3.8683900237083436E-4	-8.651530146598816E-4	0		0.4461644592285156	-2.288347900390625	0		-1.0898623046875	0.03791734313964844	0		-0.7300048217773437	-2.286997802734375	0		1.6464232177734375	-0.35681661987304686	0		3.197573486328125	0.07809864044189453	0		4.6568037109375	0.1326197509765625	0		5.5712646484375	0.20329759216308593	0		-0.24641517639160157	5.9495810546875	0		
0.00273534893989563	0.001979890942573547	0		0.457063720703125	-2.271527587890625	0		-1.085749267578125	0.04049332427978516	0		-0.72735546875	-2.284302978515625	0		1.6496453857421876	-0.35259210205078123	0		3.201874267578125	0.09266117095947266	0		4.67119775390625	0.15333847045898438	0		5.57846923828125	0.20499998474121095	0		-0.24771791076660157	5.94942333984375	0		
0.0028354740142822266	0.0018894840478897094	0		0.430670166015625	-2.269046630859375	0		-1.08970947265625	0.037250835418701174	0		-0.7288388671875	-2.28750732421875	0		1.6857239990234374	-0.3579814758300781	0		3.2127060546875	0.07903472900390625	0		4.6602861328125	0.15540101623535157	0		5.5744091796875	0.22427433776855468	0		-0.26401336669921877	5.939548828125	0		
0.002968242883682251	0.0018085860013961792	0		0.48005007934570315	-2.278907470703125	0		-1.0895831298828125	0.03697148132324219	0		-0.7303250122070313	-2.289685791015625	0		1.6469456787109376	-0.3560729675292969	0		3.211035400390625	0.09157010650634766	0		4.66316259765625	0.14311550903320314	0		5.57573486328125	0.1963917236328125	0		-0.13159379577636718	5.959083984375	0		
8.211400359869004E-5	-0.0012107019424438476	0		0.45461907958984377	-2.27645166015625	0		-1.0894232177734375	0.03672486114501953	0		-0.731827392578125	-2.29183984375	0		1.6861451416015625	-0.3575593566894531	0		3.187224853515625	0.09442806243896484	0		4.64744677734375	0.15206582641601563	0		5.5758701171875	0.19778549194335937	0		-0.13336360168457032	5.9600078125	0		
2.804639935493469E-4	-0.001274664044380188	0		0.47284027099609377	-2.293759521484375	0		-1.089230224609375	0.03650837707519531	0		-0.729274169921875	-2.290041015625	0		1.6274366455078124	-0.3543707275390625	0		3.19228857421875	0.08772514343261718	0		4.65734619140625	0.1364824981689453	0		5.57602587890625	0.1990042724609375	0		-0.2663765563964844	5.93920361328125	0		
0.0035613670349121094	0.0016173019409179688	0		0.45555691528320313	-2.2814521484375	0		-1.0790404052734375	0.03414885711669922	0		-0.7246810302734376	-2.285255126953125	0		1.6897347412109376	-0.35329049682617186	0		3.225451416015625	0.08449256134033203	0		4.658884765625	0.15597238159179688	0		5.582078125	0.22404083251953125	0		-0.24973417663574218	5.94682275390625	0		
0.0038216729164123535	0.0015684250593185425	0		0.48617111206054686	-2.27496484375	0		-1.0846976318359376	0.03908789825439453	0		-0.7262318725585938	-2.288345703125	0		1.6510548095703126	-0.3514995422363281	0		3.2069609375	0.10010219573974609	0		4.67214404296875	0.15718994140625	0		5.5793369140625	0.21296150207519532	0		-0.25107952880859374	5.94776416015625	0		
0.004110936164855957	0.0015257389545440673	0		0.4675325622558594	-2.2826416015625	0		-1.051484130859375	0.03438953399658203	0		-0.69180908203125	-2.29302880859375	0		1.6872861328125	-0.3570023803710938	0		3.193040283203125	0.08858628082275391	0		4.65321875	0.14589044189453124	0		5.57245703125	0.2192241973876953	0		-0.1341220703125	5.95871728515625	0		
0.0013764899969100951	-0.0014609260559082032	0		0.45712722778320314	-2.276458984375	0		-1.08814892578125	0.035893386840820315	0		-0.73134423828125	-2.294446044921875	0		1.6486517333984374	-0.3552533569335937	0		3.19334912109375	0.08879492950439453	0		4.664521484375	0.14602659606933593	0		5.57684814453125	0.2024189453125	0		-0.13426646423339844	5.9586689453125	0		
